# xmcd
#
# Track frame offsets: 
#        150
#        30745
#        63597
#        100232
#        134527
#        169250
#        196220
#        228387
#        256800
#
# Disc length: 3979 seconds
#
# Revision: 0
# Processed by: cddbd v1.5.2PL0 Copyright (c) Steve Scherf et al.
# Submitted via: ExactAudioCopyFreeDBPlugin 1.0
#
DISCID=7a0f8909
DTITLE=Marcelo Zarvor and Peter Epstein - Dualism
DYEAR=1995
DGENRE=New Age
TTITLE0=Baiâo for the Left Wing
TTITLE1=For the New Year
TTITLE2=Olga Beneario
TTITLE3=Abrigo
TTITLE4=Lullaby
TTITLE5=Opening
TTITLE6=Dualism
TTITLE7=The Other Half
TTITLE8=Blues for Roit
EXTD=YEAR: 1995
EXTT0=
EXTT1=
EXTT2=
EXTT3=
EXTT4=
EXTT5=
EXTT6=
EXTT7=
EXTT8=
PLAYORDER=
